<svg xmlns="http://www.w3.org/2000/svg" width="48" height="48" viewBox="0 0 48 48">
  <!-- 蝴蝶结 -->
  <path d="M24 12c-4 0-8 2-10 6-2 4-2 10 0 14 2 4 6 6 10 6s8-2 10-6c2-4 2-10 0-14-2-4-6-6-10-6z" fill="#EC407A"/>
  <path d="M14 22c0 0 4 2 10 2s10-2 10-2" stroke="#F48FB1" stroke-width="2" stroke-linecap="round" fill="none"/>
  <ellipse cx="14" cy="24" rx="6" ry="8" fill="#EC407A"/>
  <ellipse cx="34" cy="24" rx="6" ry="8" fill="#EC407A"/>
  <circle cx="24" cy="24" r="4" fill="#F8BBD9"/>
  <path d="M24 16v6M21 19h6" stroke="#F48FB1" stroke-width="1.2" stroke-linecap="round"/>
</svg>
