<svg xmlns="http://www.w3.org/2000/svg" viewBox="0 0 48 48" width="48" height="48">
  <defs>
    <linearGradient id="body" x1="0%" y1="0%" x2="100%" y2="100%">
      <stop offset="0%" stop-color="#FF6B35"/>
      <stop offset="55%" stop-color="#F44336"/>
      <stop offset="100%" stop-color="#D32F2F"/>
    </linearGradient>
    <linearGradient id="flap" x1="0%" y1="0%" x2="0%" y2="100%">
      <stop offset="0%" stop-color="#FF8A50"/>
      <stop offset="100%" stop-color="#E53935"/>
    </linearGradient>
    <linearGradient id="coin" x1="0%" y1="0%" x2="100%" y2="100%">
      <stop offset="0%" stop-color="#FFE082"/>
      <stop offset="45%" stop-color="#FFC107"/>
      <stop offset="100%" stop-color="#FF9800"/>
    </linearGradient>
  </defs>
  <rect x="7" y="11" width="34" height="34" rx="5" fill="url(#body)"/>
  <path d="M7 15 C7 13 41 13 41 15 L41 22 C41 22 24 34 7 22 Z" fill="url(#flap)" opacity="0.95"/>
  <path d="M7 22 C15 28 24 31 24 31 C24 31 33 28 41 22 L41 42 C41 44 7 44 7 42 Z" fill="#C62828" opacity="0.35"/>
  <circle cx="24" cy="27" r="10" fill="url(#coin)" stroke="#FF8F00" stroke-width="1.2"/>
  <path fill="none" stroke="#E65100" stroke-width="2.6" stroke-linecap="round" stroke-linejoin="round" d="M29 22 C29 19 19 18 18 21 C17 24 20 26 24 27 C28 28 31 30 29 33 C27 36 19 37 18 34"/>
</svg>
