<svg xmlns="http://www.w3.org/2000/svg" viewBox="0 0 171 171" width="48" height="48">
 <g>
   <path fill="#156DB5" d="M12 62c6,7 44,19 52,23 18,7 22,13 57,-6 -8,-11 -36,-11 -38,-26 8,0 52,17 57,30 4,9 3,10 1,18 -2,11 1,8 1,20 1,17 -1,27 12,34l8 -5c-1,-14 -15,-23 -10,-39 3,-12 -6,-23 -9,-41 7,-2 13,-3 17,-8 -7,-8 -24,-12 -35,-16 -46,-18 -30,-19 -76,-1 -11,5 -28,9 -37,17z"/>
   <path fill="#156DB5" d="M130 120c-2,-20 1,-15 1,-32 -12,0 -34,15 -46,15 -10,1 -32,-14 -47,-16 1,33 -2,36 32,44 26,6 43,-2 60,-11z"/>
 </g>
</svg>
