<svg xmlns="http://www.w3.org/2000/svg" viewBox="0 0 212 212" width="48" height="48">
 <g>
   <path fill="#F31C23" d="M70 101c7,4 5,-2 31,-2l28 2c8,-27 -15,-62 -27,-72 1,30 -6,39 -21,57 -9,9 -9,7 -11,15z"/>
   <path fill="#FA5A2A" d="M65 112c-6,7 -3,24 3,29 9,-1 4,-1 12,-5 6,-3 3,-3 8,-3 7,1 0,-4 6,3 3,-5 6,-13 12,-17l5 12c8,-1 16,5 21,10 6,6 7,15 10,24l8 1c8,-5 9,-10 11,-20 -8,-2 -8,-9 -14,-15 -7,-8 -14,-7 -12,-18l-10 3c-30,-9 -29,-6 -59,4l-1 -8z"/>
   <path fill="#FB8423" d="M68 141l2 5 -2 1c-5,7 -6,9 -13,13 5,12 13,18 28,21 -2,-8 -3,-17 -1,-25 9,-24 10,3 12,-20 -6,-7 1,-2 -6,-3 -5,0 -2,0 -8,3 -8,4 -3,4 -12,5z"/>
   <path fill="#F33C29" d="M65 112l1 8c30,-10 29,-13 59,-4l4 -15 -28 -2c-26,0 -24,6 -31,2 -7,3 -5,3 -5,11z"/>
   <path fill="#F33C29" d="M135 113c-2,11 5,10 12,18 6,6 6,13 14,15 4,-25 -11,-45 -20,-61 1,13 -3,20 -6,28z"/>
   <path fill="#FB8423" d="M111 131c5,12 9,10 12,21l3 8c0,1 1,1 1,2 0,0 1,1 1,2 3,7 2,7 0,17 12,-4 17,-7 22,-15l-8 -1c-3,-9 -4,-18 -10,-24 -5,-5 -13,-11 -21,-10z"/>
   <path fill="#FA5A2A" d="M55 160c7,-4 8,-6 13,-13l-19 -16c0,12 0,22 6,29z"/>
 </g>
</svg>
