<svg xmlns="http://www.w3.org/2000/svg" viewBox="0 0 2258 2258" width="48" height="48">
 <g>
   <path fill="#FDFDFD" d="M853 636c-23,93 -58,190 -69,294 -10,92 27,236 -44,298 -64,102 -111,160 -112,315 430,-80 249,-78 387,41 166,142 306,-63 340,-91l313 59c-13,-158 -33,-191 -103,-306l-46 -24c-4,-342 -14,-369 -110,-665 -100,-117 -136,-224 -284,-270 -26,22 -130,127 -162,168 -36,46 -71,124 -110,181z"/>
   <path fill="#9E82EE" d="M1605 1215l-40 31c70,115 90,148 103,306l-313 -59c-34,28 -174,233 -340,91 -138,-119 43,-121 -387,-41 1,-155 48,-213 112,-315 -31,-131 -39,-135 -43,-290 -45,246 62,128 -87,349 -71,105 -94,220 -89,365l354 -59c129,98 242,237 438,86 187,-145 33,-67 459,-18 -5,-214 -36,-343 -167,-446z"/>
   <path fill="#5BB4F5" d="M791 585l62 51c39,-57 74,-135 110,-181 32,-41 136,-146 162,-168 148,46 184,153 284,270 50,-10 30,18 47,-38 -18,-149 -177,-303 -321,-366 -116,58 -324,267 -344,432z"/>
   <path fill="#72A3ED" d="M1409 557c96,296 106,323 110,665l46 24 40 -31c-11,-216 12,-571 -149,-696 -17,56 3,28 -47,38z"/>
   <path fill="#72A3ED" d="M697 938c4,155 12,159 43,290 71,-62 34,-206 44,-298 11,-104 46,-201 69,-294l-62 -51c-14,19 -9,-6 -36,57 -12,28 -21,58 -29,87 -20,76 -25,127 -29,209z"/>
   <path fill="#9E82EE" d="M956 872c33,104 61,162 201,156 133,-5 156,-60 181,-177 -92,-28 -33,14 -95,-53l-6 105c-98,53 -89,58 -194,4l-2 -113c-65,97 15,44 -85,78z"/>
   <path fill="#5BB4F5" d="M956 872c100,-34 20,19 85,-78 63,-80 -3,-43 122,-76l80 80c62,67 3,25 95,53 -18,-130 -59,-215 -208,-206 -132,8 -169,96 -174,227z"/>
   <path fill="#FDFDFD" d="M1041 794l2 113c105,54 96,49 194,-4l6 -105 -80 -80c-125,33 -59,-4 -122,76z"/>
   <path fill="#72A3ED" d="M1150 2189c55,-74 69,-181 -2,-256 -84,54 -78,198 2,256z"/>
   <path fill="#72A3ED" d="M1326 2119c21,-31 29,39 32,-62 3,-137 -8,-51 -32,-87 -29,23 -40,-15 -48,65 -12,119 47,83 48,84z"/>
   <path fill="#72A3ED" d="M1000 2122c22,-100 40,-97 -40,-150 -2,2 -55,4 -32,86 30,103 -1,30 72,64z"/>
 </g>
</svg>
