<svg xmlns="http://www.w3.org/2000/svg" viewBox="0 0 456 456" width="48" height="48">
 <g>
   <path fill="#49A6F8" d="M171 85c-37,0 -30,-28 -59,-2 -63,55 -28,54 -26,89 -44,21 -45,-5 -45,62 0,45 5,33 44,50 -4,26 -12,19 -16,48 71,79 55,46 96,38 14,17 10,23 15,42l96 1 8 -42c37,-1 27,30 60,2 16,-13 20,-24 43,-41 -3,-30 -11,-21 -15,-46 16,-10 66,-8 36,-101l-37 -12c1,-25 6,-20 13,-42 -10,-17 -42,-50 -59,-60 -24,9 -15,14 -39,14 -16,-40 -5,-44 -58,-44 -53,0 -40,8 -57,44z"/>
   <path fill="#FEFEFE" d="M165 110c-20,-6 -17,-9 -34,-17l-34 38c5,18 17,25 8,47 -13,27 -19,11 -40,27l-3 46c22,14 32,5 42,28 9,22 -3,27 -10,46 12,18 19,21 29,36 48,-13 57,-32 76,31l58 0c10,-27 6,-63 68,-32l38 -36c-8,-24 -24,-19 -11,-46 8,-17 27,-19 41,-26l-1 -47c-20,-15 -24,-1 -38,-24 -17,-27 -1,-24 6,-50 -12,-15 -18,-24 -35,-37l-34 18c-31,-18 -28,-11 -35,-49l-56 0c-9,38 -3,30 -35,47z"/>
   <path fill="#49A6F8" d="M195 142c-124,52 -43,223 69,179 116,-44 51,-229 -69,-179z"/>
   <path fill="#FEFEFE" d="M200 164c-93,45 -26,172 59,135 31,-14 54,-54 39,-96 -13,-33 -57,-59 -98,-39z"/>
   <path fill="#49A6F8" d="M216 244c-22,-11 -8,-21 -37,-14 2,23 17,35 37,41 16,-9 22,-17 35,-31 19,-19 32,-22 24,-44 -20,-1 -44,34 -59,48z"/>
 </g>
</svg>
