<svg xmlns="http://www.w3.org/2000/svg" viewBox="0 0 631 631" width="48" height="48">
 <g>
   <path fill="#262535" d="M408 110l29 38 -114 110c-19,-7 -37,-23 -55,-34 -64,42 -86,79 -122,111 -22,18 -29,17 -36,44l17 13c24,-11 50,-40 71,-60 28,-26 38,-51 70,-65l47 39 142 -131 55 28 12 -120 -116 27z"/>
   <path fill="#262535" d="M461 549l44 -1c1,-3 2,-8 2,-7 0,1 2,-5 2,-7 0,-2 9,-185 1,-263l-46 -2 -3 280z"/>
   <path fill="#262535" d="M363 548l31 0c14,-28 9,-194 7,-223l-45 0c-8,55 -4,194 1,210l6 13z"/>
   <path fill="#262535" d="M252 548l32 0c10,-28 7,-52 7,-83 0,-31 0,-61 -1,-93l-46 -1c-1,29 -1,57 -1,86 0,32 -5,66 9,91z"/>
   <path fill="#262535" d="M150 548l43 1 -1 -122 -50 0c-3,41 -7,94 8,121z"/>
 </g>
</svg>
